<svg version="1.1" viewBox="0.0 0.0 256.0 256.0" fill="none" stroke="none" stroke-linecap="square" stroke-miterlimit="10" xmlns:xlink="http://www.w3.org/1999/xlink" xmlns="http://www.w3.org/2000/svg"><clipPath id="p.0"><path d="m0 0l256.0 0l0 256.0l-256.0 0l0 -256.0z" clip-rule="nonzero"/></clipPath><g clip-path="url(#p.0)"><path fill="#000000" fill-opacity="0.0" d="m0 0l256.0 0l0 256.0l-256.0 0z" fill-rule="evenodd"/><path fill="#ffffff" d="m0 128.0l0 0c0 -70.692444 57.307552 -128.0 128.0 -128.0l0 0c33.94771 0 66.505005 13.485676 90.509674 37.490334c24.004654 24.004654 37.490326 56.56196 37.490326 90.50967l0 0c0 70.692444 -57.307556 128.0 -128.0 128.0l0 0c-70.692444 0 -128.0 -57.307556 -128.0 -128.0zm22.99904 0l0 0c0 57.990433 47.01053 105.00096 105.00096 105.00096c57.990433 0 105.00096 -47.01053 105.00096 -105.00096l0 0c0 -57.990433 -47.01053 -105.00096 -105.00096 -105.00096l0 0c-57.990433 0 -105.00096 47.01053 -105.00096 105.00096z" fill-rule="evenodd"/><path fill="#ffffff" d="m70.82809 80.89919l0 0c0 -13.802765 11.189354 -24.992123 24.992126 -24.992123l0 0c6.628319 0 12.985168 2.633091 17.672096 7.3200226c4.6869354 4.6869316 7.3200226 11.043781 7.3200226 17.6721l0 0c0 13.8027725 -11.189354 24.992126 -24.992119 24.992126l0 0c-13.8027725 0 -24.992126 -11.189354 -24.992126 -24.992126z" fill-rule="evenodd"/><path fill="#ffffff" d="m70.82809 175.1013l0 0c0 -13.80278 11.189354 -24.992126 24.992126 -24.992126l0 0c6.628319 0 12.985168 2.6330872 17.672096 7.3200226c4.6869354 4.6869354 7.3200226 11.043777 7.3200226 17.672104l0 0c0 13.802765 -11.189354 24.992126 -24.992119 24.992126l0 0c-13.8027725 0 -24.992126 -11.189362 -24.992126 -24.992126z" fill-rule="evenodd"/><path fill="#ffffff" d="m135.18767 128.00024l0 0c0 -13.802765 11.189346 -24.992126 24.992126 -24.992126l0 0c6.6283264 0 12.985168 2.6330948 17.672104 7.32003c4.68692 4.686928 7.3200226 11.043777 7.3200226 17.672096l0 0c0 13.802765 -11.189362 24.992126 -24.992126 24.992126l0 0c-13.80278 0 -24.992126 -11.189362 -24.992126 -24.992126z" fill-rule="evenodd"/></g></svg>