<svg version="1.1" viewBox="0.0 0.0 256.0 256.0" fill="none" stroke="none" stroke-linecap="square" stroke-miterlimit="10" xmlns:xlink="http://www.w3.org/1999/xlink" xmlns="http://www.w3.org/2000/svg"><clipPath id="p.0"><path d="m0 0l256.0 0l0 256.0l-256.0 0l0 -256.0z" clip-rule="nonzero"/></clipPath><g clip-path="url(#p.0)"><path fill="#000000" fill-opacity="0.0" d="m0 0l256.0 0l0 256.0l-256.0 0z" fill-rule="evenodd"/><path fill="#ffffff" d="m0 128.0l0 0c0 -70.692444 57.307552 -128.0 128.0 -128.0l0 0c33.94771 0 66.505005 13.485676 90.509674 37.490334c24.004654 24.004654 37.490326 56.56196 37.490326 90.50967l0 0c0 70.692444 -57.307556 128.0 -128.0 128.0l0 0c-70.692444 0 -128.0 -57.307556 -128.0 -128.0zm22.99904 0l0 0c0 57.990433 47.01053 105.00096 105.00096 105.00096c57.990433 0 105.00096 -47.01053 105.00096 -105.00096l0 0c0 -57.990433 -47.01053 -105.00096 -105.00096 -105.00096l0 0c-57.990433 0 -105.00096 47.01053 -105.00096 105.00096z" fill-rule="evenodd"/><path fill="#ffffff" d="m60.404198 128.01312l0 0c0 -41.225662 30.275421 -74.64567 67.62205 -74.64567l0 0c17.934479 0 35.134415 7.8644333 47.81601 21.863213c12.681595 13.998779 19.806046 32.98519 19.806046 52.782455l0 0c0 41.225662 -30.275421 74.645676 -67.622055 74.645676l0 0c-37.346626 0 -67.62205 -33.420013 -67.62205 -74.645676z" fill-rule="evenodd"/></g></svg>