<svg version="1.1" viewBox="0.0 0.0 256.0 256.0" fill="none" stroke="none" stroke-linecap="square" stroke-miterlimit="10" xmlns:xlink="http://www.w3.org/1999/xlink" xmlns="http://www.w3.org/2000/svg"><clipPath id="p.0"><path d="m0 0l256.0 0l0 256.0l-256.0 0l0 -256.0z" clip-rule="nonzero"/></clipPath><g clip-path="url(#p.0)"><path fill="#000000" fill-opacity="0.0" d="m0 0l256.0 0l0 256.0l-256.0 0z" fill-rule="evenodd"/><path fill="#ffffff" d="m0 128.0l0 0c0 -70.692444 57.307552 -128.0 128.0 -128.0l0 0c33.94771 0 66.505005 13.485676 90.509674 37.490334c24.004654 24.004654 37.490326 56.56196 37.490326 90.50967l0 0c0 70.692444 -57.307556 128.0 -128.0 128.0l0 0c-70.692444 0 -128.0 -57.307556 -128.0 -128.0zm22.99904 0l0 0c0 57.990433 47.01053 105.00096 105.00096 105.00096c57.990433 0 105.00096 -47.01053 105.00096 -105.00096l0 0c0 -57.990433 -47.01053 -105.00096 -105.00096 -105.00096l0 0c-57.990433 0 -105.00096 47.01053 -105.00096 105.00096z" fill-rule="evenodd"/><path fill="#ffffff" d="m87.90563 86.780045l0 0c0 -11.619728 9.419647 -21.039375 21.039368 -21.039375l0 0c5.5799866 0 10.931435 2.2166443 14.877083 6.1622925c3.9456482 3.9456482 6.1622925 9.297089 6.1622925 14.877083l0 0c0 11.61972 -9.419655 21.039368 -21.039375 21.039368l0 0c-11.61972 0 -21.039368 -9.419647 -21.039368 -21.039368z" fill-rule="evenodd"/><path fill="#ffffff" d="m88.48286 170.95164l0 0c0 -11.619736 9.419647 -21.039383 21.039368 -21.039383l0 0c5.5799866 0 10.931435 2.2166443 14.877083 6.1622925c3.9456482 3.9456482 6.1622925 9.297104 6.1622925 14.87709l0 0c0 11.61972 -9.419647 21.039368 -21.039375 21.039368l0 0c-11.61972 0 -21.039368 -9.419647 -21.039368 -21.039368z" fill-rule="evenodd"/><path fill="#ffffff" d="m136.98032 129.73167l0 0c0 -11.61972 9.419647 -21.039368 21.039368 -21.039368l0 0c5.5799866 0 10.931442 2.2166443 14.877075 6.1622925c3.9456482 3.9456482 6.1622925 9.297096 6.1622925 14.877075l0 0c0 11.619736 -9.419647 21.039383 -21.039368 21.039383l0 0c-11.61972 0 -21.039368 -9.419647 -21.039368 -21.039383z" fill-rule="evenodd"/></g></svg>