<svg version="1.1" viewBox="0.0 0.0 256.0 256.0" fill="none" stroke="none" stroke-linecap="square" stroke-miterlimit="10" xmlns:xlink="http://www.w3.org/1999/xlink" xmlns="http://www.w3.org/2000/svg"><clipPath id="p.0"><path d="m0 0l256.0 0l0 256.0l-256.0 0l0 -256.0z" clip-rule="nonzero"/></clipPath><g clip-path="url(#p.0)"><path fill="#000000" fill-opacity="0.0" d="m0 0l256.0 0l0 256.0l-256.0 0z" fill-rule="evenodd"/><path fill="#ffffff" d="m0 128.0l0 0c0 -70.692444 57.307552 -128.0 128.0 -128.0l0 0c33.94771 0 66.505005 13.485676 90.509674 37.490334c24.004654 24.004654 37.490326 56.56196 37.490326 90.50967l0 0c0 70.692444 -57.307556 128.0 -128.0 128.0l0 0c-70.692444 0 -128.0 -57.307556 -128.0 -128.0zm22.99904 0l0 0c0 57.990433 47.01053 105.00096 105.00096 105.00096c57.990433 0 105.00096 -47.01053 105.00096 -105.00096l0 0c0 -57.990433 -47.01053 -105.00096 -105.00096 -105.00096l0 0c-57.990433 0 -105.00096 47.01053 -105.00096 105.00096z" fill-rule="evenodd"/><path fill="#ffffff" d="m116.14173 60.755905l0 0c0 -6.549141 5.309128 -11.858269 11.858269 -11.858269l0 0l0 0c3.1450043 0 6.161209 1.2493515 8.385056 3.4732094c2.2238617 2.223854 3.4732056 5.2400513 3.4732056 8.385059l0 134.48819c0 6.5491333 -5.309128 11.858261 -11.858261 11.858261l0 0l0 0c-6.549141 0 -11.858269 -5.309128 -11.858269 -11.858261z" fill-rule="evenodd"/><path fill="#ffffff" d="m172.23097 91.88976l0 0c0 -6.549141 5.309128 -11.858269 11.858261 -11.858269l0 0l0 0c3.1450195 0 6.161209 1.2493515 8.385071 3.4732056c2.2238464 2.2238617 3.4732056 5.240059 3.4732056 8.385063l0 72.22047c0 6.5491486 -5.309128 11.858276 -11.858276 11.858276l0 0l0 0c-6.5491333 0 -11.858261 -5.309128 -11.858261 -11.858276z" fill-rule="evenodd"/><path fill="#ffffff" d="m60.052494 91.88976l0 0c0 -6.549141 5.309124 -11.858269 11.858265 -11.858269l0 0l0 0c3.145012 0 6.161209 1.2493515 8.385063 3.4732056c2.223854 2.2238617 3.4732056 5.240059 3.4732056 8.385063l0 72.22047c0 6.5491486 -5.309128 11.858276 -11.858269 11.858276l0 0l0 0c-6.549141 0 -11.858265 -5.309128 -11.858265 -11.858276z" fill-rule="evenodd"/></g></svg>