<svg version="1.1" viewBox="0.0 0.0 256.0 256.0" fill="none" stroke="none" stroke-linecap="square" stroke-miterlimit="10" xmlns:xlink="http://www.w3.org/1999/xlink" xmlns="http://www.w3.org/2000/svg"><clipPath id="p.0"><path d="m0 0l256.0 0l0 256.0l-256.0 0l0 -256.0z" clip-rule="nonzero"/></clipPath><g clip-path="url(#p.0)"><path fill="#000000" fill-opacity="0.0" d="m0 0l256.0 0l0 256.0l-256.0 0z" fill-rule="evenodd"/><path fill="#ffffff" d="m0 128.0l0 0c0 -70.692444 57.307552 -128.0 128.0 -128.0l0 0c33.94771 0 66.505005 13.485676 90.509674 37.490334c24.004654 24.004654 37.490326 56.56196 37.490326 90.50967l0 0c0 70.692444 -57.307556 128.0 -128.0 128.0l0 0c-70.692444 0 -128.0 -57.307556 -128.0 -128.0zm22.99904 0l0 0c0 57.990433 47.01053 105.00096 105.00096 105.00096c57.990433 0 105.00096 -47.01053 105.00096 -105.00096l0 0c0 -57.990433 -47.01053 -105.00096 -105.00096 -105.00096l0 0c-57.990433 0 -105.00096 47.01053 -105.00096 105.00096z" fill-rule="evenodd"/><path fill="#ffffff" d="m44.5853 128.00262l0 0c0 -46.070114 37.34721 -83.41733 83.41733 -83.41733l0 0c22.123657 0 43.34117 8.788586 58.984955 24.43237c15.643784 15.643784 24.432373 36.861305 24.432373 58.984955l0 0c0 46.070114 -37.347214 83.41733 -83.41733 83.41733l0 0c-46.070114 0 -83.41733 -37.347214 -83.41733 -83.41733zm20.844318 0l0 0c0 34.55812 28.014893 62.572998 62.573006 62.572998c34.55812 0 62.572998 -28.014877 62.572998 -62.572998l0 0c0 -34.558113 -28.014877 -62.573006 -62.572998 -62.573006l0 0c-34.558113 0 -62.573006 28.014893 -62.573006 62.573006z" fill-rule="evenodd"/><path fill="#ffffff" d="m117.215225 60.404198l21.574799 0l0 135.21259l-21.574799 0z" fill-rule="evenodd"/></g></svg>